<svg width="12" height="22" viewBox="0 0 12 22" fill="none" xmlns="http://www.w3.org/2000/svg">
<path d="M11.6775 1.85489C11.7805 1.74993 11.8611 1.62646 11.9145 1.49154C11.968 1.35662 11.9933 1.21288 11.9891 1.06853C11.9848 0.924187 11.9511 0.782057 11.8898 0.65026C11.8285 0.518463 11.7409 0.399579 11.6318 0.300398C11.5228 0.201216 11.3946 0.123678 11.2545 0.0722113C11.1143 0.0207445 10.9651 -0.00364364 10.8151 0.000439744C10.6652 0.00452313 10.5176 0.0369979 10.3807 0.0960098C10.2438 0.155022 10.1204 0.239415 10.0174 0.344372L0.312101 10.2386C0.111675 10.4427 0 10.7129 0 10.9938C0 11.2747 0.111675 11.545 0.312101 11.7491L10.0174 21.6444C10.1197 21.7516 10.2431 21.8382 10.3805 21.8992C10.5179 21.9601 10.6665 21.9941 10.8177 21.9993C10.9688 22.0045 11.1196 21.9807 11.2611 21.9293C11.4026 21.8779 11.5321 21.7999 11.6421 21.7C11.7521 21.6 11.8403 21.4799 11.9017 21.3468C11.9631 21.2137 11.9964 21.0702 11.9997 20.9246C12.003 20.779 11.9762 20.6342 11.9209 20.4986C11.8656 20.3631 11.7829 20.2395 11.6775 20.135L2.71215 10.9938L11.6775 1.85489Z" fill="#1C3427"/>
</svg>
